<svg id="Icon_ionic-ios-menu" data-name="Icon ionic-ios-menu" xmlns="http://www.w3.org/2000/svg" width="18.998" height="11.082" viewBox="0 0 18.998 11.082">
  <path id="Path_8057" data-name="Path 8057" d="M22.706,12.375H5.292c-.435,0-.792-.506-.792-1.125h0c0-.619.356-1.125.792-1.125H22.706c.435,0,.792.506.792,1.125h0C23.5,11.869,23.142,12.375,22.706,12.375Z" transform="translate(-4.5 -10.125)" fill="#d3d3d3"/>
  <path id="Path_8058" data-name="Path 8058" d="M22.706,19.125H5.292c-.435,0-.792-.506-.792-1.125h0c0-.619.356-1.125.792-1.125H22.706c.435,0,.792.506.792,1.125h0C23.5,18.619,23.142,19.125,22.706,19.125Z" transform="translate(-4.5 -12.459)" fill="#d3d3d3"/>
  <path id="Path_8059" data-name="Path 8059" d="M22.706,25.875H5.292c-.435,0-.792-.506-.792-1.125h0c0-.619.356-1.125.792-1.125H22.706c.435,0,.792.506.792,1.125h0C23.5,25.369,23.142,25.875,22.706,25.875Z" transform="translate(-4.5 -14.793)" fill="#d3d3d3"/>
</svg>
